<svg xmlns="http://www.w3.org/2000/svg" viewBox="0 0 32 32" width="32" height="32">
  <defs>
    <linearGradient id="dropGradient" x1="0%" y1="0%" x2="100%" y2="100%">
      <stop offset="0%" style="stop-color:#007ACC;stop-opacity:1" />
      <stop offset="100%" style="stop-color:#0056b3;stop-opacity:1" />
    </linearGradient>
  </defs>
  
  <!-- Background circle -->
  <circle cx="16" cy="16" r="15" fill="url(#dropGradient)" stroke="#fff" stroke-width="1"/>
  
  <!-- Cloud shape -->
  <path d="M8 18c-1.1 0-2-.9-2-2s.9-2 2-2c.2-2.2 2-4 4.2-4 1.5 0 2.8.8 3.5 2 .3-.1.6-.2 1-.2 1.7 0 3 1.3 3 3s-1.3 3-3 3H8z" fill="#fff"/>
  
  <!-- Upload arrow -->
  <path d="M16 12l-3 3h2v4h2v-4h2l-3-3z" fill="#007ACC"/>
  
  <!-- File dots -->
  <circle cx="13" cy="22" r="1" fill="#fff"/>
  <circle cx="16" cy="22" r="1" fill="#fff"/>
  <circle cx="19" cy="22" r="1" fill="#fff"/>
</svg>
